<?xml version="1.0" encoding="UTF-8" standalone="no"?>
<svg
   width="64"
   height="64"
   version="1.1"
   id="svg57"
   sodipodi:docname="blopstore.svg"
   inkscape:version="1.1.2 (b8e25be833, 2022-02-05)"
   xmlns:inkscape="http://www.inkscape.org/namespaces/inkscape"
   xmlns:sodipodi="http://sodipodi.sourceforge.net/DTD/sodipodi-0.dtd"
   xmlns:xlink="http://www.w3.org/1999/xlink"
   xmlns="http://www.w3.org/2000/svg"
   xmlns:svg="http://www.w3.org/2000/svg">
  <sodipodi:namedview
     id="namedview59"
     pagecolor="#ffffff"
     bordercolor="#666666"
     borderopacity="1.0"
     inkscape:pageshadow="2"
     inkscape:pageopacity="0.0"
     inkscape:pagecheckerboard="0"
     showgrid="false"
     inkscape:zoom="9.0317594"
     inkscape:cx="21.922639"
     inkscape:cy="35.651968"
     inkscape:window-width="1920"
     inkscape:window-height="1017"
     inkscape:window-x="-8"
     inkscape:window-y="-8"
     inkscape:window-maximized="1"
     inkscape:current-layer="svg57" />
  <defs
     id="defs31">
    <linearGradient
       id="linearGradient3100"
       y1="543.79999"
       y2="513.79999"
       x2="0"
       gradientUnits="userSpaceOnUse"
       gradientTransform="matrix(1.125,0,0,1,-51.07,0)">
      <stop
         stop-color="#197cf1"
         id="stop3096"
         style="stop-color:#4f1257;stop-opacity:1" />
      <stop
         offset="1"
         stop-color="#20bcfa"
         id="stop3098"
         style="stop-color:#8f04a1;stop-opacity:1" />
    </linearGradient>
    <linearGradient
       id="linearGradient1877"
       inkscape:swatch="solid">
      <stop
         style="stop-color:#4f1257;stop-opacity:1;"
         offset="0"
         id="stop1875" />
    </linearGradient>
    <linearGradient
       id="a"
       y1="543.79999"
       y2="513.79999"
       x2="0"
       gradientUnits="userSpaceOnUse"
       gradientTransform="matrix(1.125,0,0,1,-51.07,0)">
      <stop
         stop-color="#197cf1"
         id="stop2" />
      <stop
         offset="1"
         stop-color="#20bcfa"
         id="stop4" />
    </linearGradient>
    <linearGradient
       xlink:href="#linearGradient3100"
       id="b"
       y1="44"
       y2="11"
       x2="0"
       gradientUnits="userSpaceOnUse" />
    <linearGradient
       id="c"
       y1="10"
       y2="14"
       x2="0"
       gradientUnits="userSpaceOnUse">
      <stop
         stop-color="#1d1e1e"
         id="stop8" />
      <stop
         offset="1"
         stop-color="#44484c"
         id="stop10" />
    </linearGradient>
    <linearGradient
       xlink:href="#linearGradient3100"
       id="d"
       y1="14"
       y2="10"
       gradientUnits="userSpaceOnUse"
       x2="0" />
    <linearGradient
       xlink:href="#linearGradient3100"
       id="e"
       y1="516.79999"
       y2="503.79999"
       x2="0"
       gradientUnits="userSpaceOnUse" />
    <linearGradient
       id="f"
       y1="18"
       y2="15"
       x2="0"
       gradientUnits="userSpaceOnUse">
      <stop
         stop-color="#c6cdd1"
         id="stop15" />
      <stop
         offset="1"
         stop-color="#e0e5e7"
         id="stop17" />
    </linearGradient>
    <linearGradient
       xlink:href="#f"
       id="g"
       y1="517.79999"
       y2="514.79999"
       x2="0"
       gradientUnits="userSpaceOnUse" />
    <linearGradient
       id="h"
       y1="19"
       y2="3"
       x2="0"
       gradientUnits="userSpaceOnUse"
       gradientTransform="translate(0,-2)"
       x1="0"
       spreadMethod="pad">
      <stop
         stop-color="#7cbaf8"
         id="stop21"
         style="stop-color:#fdeb6a;stop-opacity:1" />
      <stop
         offset="1"
         stop-color="#f4fcff"
         id="stop23"
         style="stop-color:#fcfac0;stop-opacity:1" />
    </linearGradient>
    <linearGradient
       id="i"
       y1="23"
       x1="16"
       y2="39"
       x2="32"
       gradientUnits="userSpaceOnUse">
      <stop
         stop-color="#292c2f"
         id="stop26" />
      <stop
         offset="1"
         stop-opacity="0"
         id="stop28" />
    </linearGradient>
    <linearGradient
       inkscape:collect="always"
       xlink:href="#linearGradient3100"
       id="linearGradient1101"
       gradientUnits="userSpaceOnUse"
       gradientTransform="matrix(1.125,0,0,1,-51.07,0)"
       y1="543.79999"
       x2="0"
       y2="513.79999" />
    <linearGradient
       inkscape:collect="always"
       xlink:href="#c"
       id="linearGradient1550"
       gradientUnits="userSpaceOnUse"
       y1="10"
       x2="0"
       y2="14"
       gradientTransform="translate(384.57,499.8)" />
    <linearGradient
       inkscape:collect="always"
       xlink:href="#h"
       id="linearGradient7862"
       x1="19.891489"
       y1="26.238781"
       x2="19.511251"
       y2="-3.7018132"
       gradientUnits="userSpaceOnUse" />
    <linearGradient
       inkscape:collect="always"
       xlink:href="#h"
       id="linearGradient12939"
       gradientUnits="userSpaceOnUse"
       x1="19.891489"
       y1="26.238781"
       x2="19.511251"
       y2="-3.7018132" />
    <linearGradient
       inkscape:collect="always"
       xlink:href="#h"
       id="linearGradient12941"
       gradientUnits="userSpaceOnUse"
       x1="19.891489"
       y1="26.238781"
       x2="19.511251"
       y2="-3.7018132" />
    <linearGradient
       inkscape:collect="always"
       xlink:href="#i"
       id="linearGradient13567"
       x1="14.030269"
       y1="18.863937"
       x2="33.392757"
       y2="37.627983"
       gradientUnits="userSpaceOnUse"
       gradientTransform="matrix(1.5986312,0,0,1.5986312,-6.0917763,-6.3945234)" />
    <linearGradient
       inkscape:collect="always"
       xlink:href="#f"
       id="linearGradient868"
       gradientUnits="userSpaceOnUse"
       y1="18"
       x2="0"
       y2="15" />
  </defs>
  <g
     transform="matrix(1.5986312,0,0,1.5986312,-620.87739,-805.3904)"
     id="g55">
    <path
       fill="url(#b)"
       fill-rule="evenodd"
       d="m 9,11 v 2 l 1,-1 z m 30,0 -1,1 1,1 z"
       transform="translate(384.57,499.8)"
       id="path33"
       style="fill:url(#b);fill-opacity:1" />
    <rect
       width="36"
       x="390.57001"
       y="513.79999"
       fill="url(#a)"
       rx="0"
       height="30"
       id="rect35"
       ry="0"
       style="fill:url(#linearGradient1101);fill-opacity:1" />
    <rect
       width="36"
       x="390.57001"
       y="542.79999"
       fill="#1c5593"
       height="1"
       id="rect39"
       style="fill:#410149;fill-opacity:1" />
    <path
       fill-rule="evenodd"
       fill="url(#d)"
       d="m 10,10 -1,1 1,1 -4,2 h 36 l -4,-2 1,-1 -1,-1 H 24 Z"
       transform="translate(384.57,499.8)"
       id="path41"
       style="fill:url(#d);fill-opacity:1" />
    <path
       fill-rule="evenodd"
       d="m 394.57,509.8 -1,1 1,1 -4,2 h 36 l -4,-2 1,-1 -1,-1 h -14 z"
       opacity="0.6"
       fill="url(#c)"
       id="path43"
       style="fill:url(#linearGradient1550)" />
    <path
       opacity="0.2"
       d="M 10,10 9,11 H 39 L 38,10 H 24 Z"
       transform="translate(384.57,499.8)"
       id="path45" />
    <path
       fill="url(#e)"
       d="m 400.57,516.8 v -5 c 0,-4.432 3.568,-8 8,-8 4.432,0 8,3.568 8,8 v 5 h -1 v -5 c 0,-3.878 -3.122,-7 -7,-7 -3.878,0 -7,3.122 -7,7 v 5 z"
       id="path47"
       style="fill:url(#e);fill-opacity:1" />
    <path
       fill="url(#g)"
       d="m 401.07143,514.798 a 1.5,1.5 0 0 1 1.5,1.5 1.5,1.5 0 0 1 -1.5,1.5 1.5,1.5 0 0 1 -1.5,-1.5 1.5,1.5 0 0 1 1.5,-1.5 m 0,1 a 0.5,0.5 0 0 0 -0.5,0.5 0.5,0.5 0 0 0 0.5,0.5 0.5,0.5 0 0 0 0.5,-0.5 0.5,0.5 0 0 0 -0.5,-0.5"
       id="path49"
       style="fill:url(#g)" />
    <path
       fill="url(#f)"
       d="M 31.5,15 A 1.5,1.5 0 0 0 30,16.5 1.5,1.5 0 0 0 31.5,18 1.5,1.5 0 0 0 33,16.5 1.5,1.5 0 0 0 31.5,15 m 0,1 A 0.5,0.5 0 0 1 32,16.5 0.5,0.5 0 0 1 31.5,17 0.5,0.5 0 0 1 31,16.5 0.5,0.5 0 0 1 31.5,16"
       transform="translate(384.57,499.8)"
       id="path51"
       style="fill:url(#linearGradient868)" />
  </g>
  <path
     style="fill:url(#linearGradient13567);fill-opacity:1;stroke:none;stroke-width:1.59863px;stroke-linecap:butt;stroke-linejoin:miter;stroke-opacity:1"
     d="M 14.35419,50.058333 28.295856,64.000001 H 61.008469 L 60.099476,40.873137 48.761478,30.492843 l -10.333234,0.484661 -2.086552,7.540515 -7.147995,-7.06536 -9.808381,2.953281 v 3.913099 l -1.32125,7.087875 -3.709876,4.651419"
     id="path13190"
     sodipodi:nodetypes="cccccccccccc" />
  <g
     aria-label="BS"
     id="text6234"
     style="font-size:40px;line-height:1.25;font-family:'Russo One';-inkscape-font-specification:'Russo One';fill:url(#linearGradient7862)"
     transform="matrix(0.69876754,0,0,0.69876754,0.74524046,29.677036)">
    <path
       d="m 19.475647,1.1674938 h 16 q 3.92,0 5.76,1.8 1.84,1.76 1.84,5.4 0,2.4000002 -1.04,3.9200002 -1.04,1.48 -2.56,2.08 3.24,0.88 4.4,4.32 0.4,1.24 0.4,2.88 0,3.92 -1.84,5.76 -1.84,1.84 -5.76,1.84 h -17.2 z m 17.6,19.2000002 q 0,-2.4 -2.4,-2.4 h -8 v 5.6 h 8 q 2.4,0 2.4,-2.4 z m -1.2,-11.2000002 q 0,-2.4 -2.4,-2.4 h -6.8 v 5.6000002 h 6.8 q 2.4,0 2.4,-2.4000002 z"
       id="path12916"
       style="fill:url(#linearGradient12939)" />
    <path
       d="m 47.035611,23.367494 q 10.96,0.6 14.84,0.6 0.92,0 1.44,-0.52 0.56,-0.56 0.56,-1.48 v -3.6 h -9.2 q -4.2,0 -6.12,-1.88 -1.88,-1.92 -1.88,-6.12 V 9.1674938 q 0,-4.2 1.88,-6.08 1.92,-1.92 6.12,-1.92 h 14.04 v 5.6 h -12.44 q -2.4,0 -2.4,2.4 v 0.8 q 0,2.4000002 2.4,2.4000002 h 7.2 q 3.92,0 5.76,1.84 1.84,1.84 1.84,5.76 v 2 q 0,3.92 -1.84,5.76 -1.84,1.84 -5.76,1.84 -2.04,0 -4.32,-0.08 l -3.68,-0.16 q -4.08,-0.2 -8.44,-0.56 z"
       id="path12918"
       style="fill:url(#linearGradient12941)" />
  </g>
</svg>
