<?xml version="1.0" encoding="UTF-8" standalone="no"?>
<!-- Created with Inkscape (http://www.inkscape.org/) -->

<svg
   width="64mm"
   height="64mm"
   viewBox="0 0 64 64"
   version="1.1"
   id="svg5"
   inkscape:version="1.1.2 (b8e25be833, 2022-02-05)"
   sodipodi:docname="onect.svg"
   xmlns:inkscape="http://www.inkscape.org/namespaces/inkscape"
   xmlns:sodipodi="http://sodipodi.sourceforge.net/DTD/sodipodi-0.dtd"
   xmlns="http://www.w3.org/2000/svg"
   xmlns:svg="http://www.w3.org/2000/svg">
  <sodipodi:namedview
     id="namedview7"
     pagecolor="#ffffff"
     bordercolor="#666666"
     borderopacity="1.0"
     inkscape:pageshadow="2"
     inkscape:pageopacity="0.0"
     inkscape:pagecheckerboard="0"
     inkscape:document-units="mm"
     showgrid="false"
     inkscape:zoom="0.55048947"
     inkscape:cx="494.10573"
     inkscape:cy="454.1413"
     inkscape:window-width="1920"
     inkscape:window-height="1017"
     inkscape:window-x="-8"
     inkscape:window-y="-8"
     inkscape:window-maximized="1"
     inkscape:current-layer="layer1"
     showguides="false" />
  <defs
     id="defs2" />
  <g
     inkscape:label="Слой 1"
     inkscape:groupmode="layer"
     id="layer1">
    <path
       style="color:#000000;fill:#620092;stroke:#ffffff;stroke-width:2.5;stroke-linecap:round;stroke-miterlimit:4;stroke-dasharray:none;stroke-opacity:1;paint-order:markers stroke fill"
       d="m 51.531243,24.345345 a 0.63582355,0.63582355 0 0 0 -0.635777,0.635776 v 9.659582 a 0.63582355,0.63582355 0 0 0 0.635777,0.635775 0.63582355,0.63582355 0 0 0 0.635778,-0.635775 v -9.659582 a 0.63582355,0.63582355 0 0 0 -0.635778,-0.635776 z"
       id="path9731" />
    <path
       style="color:#000000;fill:#620092;stroke:#ffffff;stroke-width:2.5;stroke-linecap:round;stroke-miterlimit:4;stroke-dasharray:none;stroke-opacity:1;paint-order:markers stroke fill"
       d="M 32.458416,1.2499997 C 15.89961,1.2499997 1.2499997,14.58127 1.2499997,31.718476 1.2499997,48.872144 16.279765,62.75 32.114486,62.75 c 11.894759,0 19.624197,-5.744563 24.273056,-11.447262 4.648861,-5.702698 6.323983,-11.430839 6.323983,-11.430839 a 0.95373651,0.95373651 0 0 0 -0.647039,-1.183342 0.95373651,0.95373651 0 0 0 -1.18334,0.647507 c 0,0 -1.575322,5.367834 -5.972076,10.76128 -4.396756,5.393443 -11.508534,10.745327 -22.794584,10.745327 -14.711962,0 -28.9571569,-13.092324 -28.9571569,-29.124195 0,-16.048338 13.7662859,-28.5611469 29.3010869,-28.5611469 7.882798,0 12.530672,1.7366178 15.195293,3.4036334 1.33231,0.8335075 2.17212,1.6524308 2.674017,2.2465666 0.501895,0.5941361 0.634368,0.8975945 0.634368,0.8975945 a 0.95373651,0.95373651 0 0 0 1.268269,0.4593544 0.95373651,0.95373651 0 0 0 0.459355,-1.2677994 c 0,0 -0.282427,-0.5837946 -0.904635,-1.3203507 C 51.162876,6.8397721 50.169519,5.8843514 48.665792,4.9436031 45.658335,3.0621069 40.622419,1.2499997 32.458416,1.2499997 Z"
       id="path961" />
    <g
       id="path2167"
       transform="matrix(0.24023438,0,0,0.24023438,0.45624983,1.2499997)"
       style="stroke:#ffffff;stroke-width:10.4065;stroke-miterlimit:4;stroke-dasharray:none;stroke-opacity:1;paint-order:markers stroke fill">
      <path
         style="color:#000000;fill:#000000;fill-opacity:0;fill-rule:evenodd;stroke:#ffffff;stroke-width:10.4065;stroke-linecap:round;stroke-miterlimit:4;stroke-dasharray:none;stroke-opacity:1;paint-order:markers stroke fill"
         d="M 57.690195,121.81118 A 18.720972,18.361019 0 0 1 38.969223,140.1722 18.720972,18.361019 0 0 1 20.248251,121.81118 18.720972,18.361019 0 0 1 38.969223,103.45016 18.720972,18.361019 0 0 1 57.690195,121.81118 Z"
         id="path835" />
      <path
         style="color:#000000;fill:#620092;fill-rule:evenodd;stroke:#ffffff;stroke-width:10.4065;stroke-linecap:round;stroke-miterlimit:4;stroke-dasharray:none;stroke-opacity:1;paint-order:markers stroke fill"
         d="m 38.96875,100.80273 c -11.742166,0 -21.367188,9.4089 -21.367188,21.00782 0,11.59891 9.625022,21.00781 21.367188,21.00781 11.742166,0 21.367187,-9.4089 21.367187,-21.00781 0,-11.59892 -9.625021,-21.00782 -21.367187,-21.00782 z m 0,5.29493 c 8.936428,0 16.074219,7.0308 16.074219,15.71289 0,8.68209 -7.137791,15.71484 -16.074219,15.71484 -8.936428,0 -16.074219,-7.03275 -16.074219,-15.71484 0,-8.68209 7.137791,-15.71289 16.074219,-15.71289 z"
         id="path837" />
    </g>
    <path
       style="color:#000000;fill:#620092;stroke:#ffffff;stroke-width:2.5;stroke-linecap:round;stroke-miterlimit:4;stroke-dasharray:none;stroke-opacity:1;paint-order:markers stroke fill"
       d="m 22.111446,24.95813 c -0.30932,0.01712 -0.625652,0.08417 -0.952961,0.164691 -0.654617,0.161037 -1.348712,0.42043 -1.995071,0.694427 -1.292719,0.548 -2.398121,1.163167 -2.398121,1.163167 a 0.63582355,0.63582355 0 0 0 -0.246803,0.864282 0.63582355,0.63582355 0 0 0 0.864749,0.24727 c 0,0 1.058964,-0.587407 2.276597,-1.103577 0.608816,-0.258082 1.25633,-0.496207 1.802696,-0.630615 0.496726,-0.122195 0.879601,-0.116225 1.020996,-0.08727 0.0055,0.01638 0.0087,0.0206 0.02112,0.07883 0.0381,0.178877 0.05414,0.503762 0.03378,0.897122 -0.04072,0.78672 -0.207922,1.855122 -0.372551,2.923634 -0.164629,1.068512 -0.327344,2.134962 -0.344398,3.010907 -0.0085,0.437972 0.01073,0.826925 0.130439,1.195072 0.11971,0.368147 0.454483,0.792037 0.928562,0.85912 1.932086,0.27339 3.379235,-1.002697 3.379235,-1.002697 a 0.63582355,0.63582355 0 0 0 0.06991,-0.896188 0.63582355,0.63582355 0 0 0 -0.896655,-0.07038 c 0,0 -1.033879,0.826623 -2.272842,0.706155 -0.03926,-0.125627 -0.07459,-0.405377 -0.06757,-0.766215 0.01425,-0.731834 0.166339,-1.778129 0.330323,-2.842459 0.163984,-1.06433 0.338987,-2.148959 0.385688,-3.051259 0.02335,-0.45115 0.01939,-0.854907 -0.06006,-1.227917 -0.07945,-0.37301 -0.268333,-0.808062 -0.725396,-0.990497 -0.299756,-0.119648 -0.60235,-0.152718 -0.91167,-0.135601 z"
       id="path3556" />
    <path
       style="color:#000000;fill:#620092;stroke:#ffffff;stroke-width:2.5;stroke-linecap:round;stroke-miterlimit:4;stroke-dasharray:none;stroke-opacity:1;paint-order:markers stroke fill"
       d="m 31.636364,24.870388 c -1.8271,0.127956 -3.167997,0.860457 -4.024864,1.838357 -0.721962,0.823937 -1.089952,1.794862 -1.222287,2.714834 a 0.63582355,0.63582355 0 0 0 -0.0033,0.0033 0.63582355,0.63582355 0 0 0 0.0025,0.0056 c -0.024,0.168855 -0.05523,0.339603 -0.06287,0.50346 -0.05262,1.127723 0.381662,2.430862 1.242459,3.511084 0.860803,1.08022 2.207182,1.923527 3.901464,1.893722 1.615462,-0.02842 2.759597,-0.567142 3.480584,-1.114839 0.720985,-0.547698 1.057125,-1.147683 1.057125,-1.147683 a 0.63582355,0.63582355 0 0 0 -0.253372,-0.862872 0.63582355,0.63582355 0 0 0 -0.862875,0.253373 c 0,0 -0.17664,0.339537 -0.70991,0.744632 -0.53327,0.405097 -1.384612,0.832095 -2.734072,0.855835 -1.270649,0.02238 -2.216356,-0.575965 -2.884691,-1.41466 -0.638525,-0.801287 -0.960358,-1.826217 -0.95906,-2.551552 l 9.302045,0.306393 -0.188623,-0.807508 c 0,0 -0.277097,-1.208379 -1.025219,-2.402344 -0.748123,-1.193965 -2.086027,-2.46703 -4.054894,-2.329147 z m 0.08915,1.26874 c 1.400519,-0.09808 2.270704,0.74972 2.888442,1.735599 0.270267,0.431328 0.442262,0.847458 0.580879,1.205863 L 27.83672,28.838477 c 0.158312,-0.453602 0.387727,-0.89994 0.731025,-1.291727 0.63929,-0.729587 1.615484,-1.299615 3.157769,-1.407622 z"
       id="path4889" />
    <path
       style="color:#000000;fill:#620092;stroke:#ffffff;stroke-width:2.5;stroke-linecap:round;stroke-miterlimit:4;stroke-dasharray:none;stroke-opacity:1;paint-order:markers stroke fill"
       d="m 43.330848,24.510506 c -1.086642,0 -2.370202,0.467163 -3.452429,1.364457 -1.082227,0.897292 -1.943927,2.277999 -1.943927,4.030961 0,1.775035 0.95503,3.170289 2.073427,4.083517 1.1184,0.913227 2.366147,1.411377 3.363282,1.411377 0.930914,0 1.804532,-0.3713 2.474134,-0.718827 0.669602,-0.347528 1.146272,-0.700525 1.146272,-0.700525 a 0.63582355,0.63582355 0 0 0 0.131848,-0.88962 0.63582355,0.63582355 0 0 0 -0.889148,-0.132318 c 0,0 -0.397135,0.29434 -0.974544,0.59402 -0.577408,0.299678 -1.324718,0.575718 -1.888562,0.575718 -0.497623,0 -1.650485,-0.382795 -2.559057,-1.124693 -0.908577,-0.741897 -1.6061,-1.776094 -1.6061,-3.098649 0,-1.344624 0.63013,-2.343679 1.484105,-3.051726 0.853975,-0.708045 1.950517,-1.072138 2.640699,-1.072138 1.577295,0 2.442229,0.699588 2.442229,0.699588 a 0.63582355,0.63582355 0 0 0 0.892903,-0.105103 0.63582355,0.63582355 0 0 0 -0.104635,-0.892902 c 0,0 -1.254142,-0.973137 -3.230497,-0.973137 z"
       id="path6715" />
    <path
       style="color:#000000;fill:#620092;stroke:#ffffff;stroke-width:2.5;stroke-linecap:round;stroke-miterlimit:4;stroke-dasharray:none;stroke-opacity:1;paint-order:markers stroke fill"
       d="m 48.637639,24.21162 a 0.63582355,0.63582355 0 0 0 -0.63578,0.636246 0.63582355,0.63582355 0 0 0 0.63578,0.635777 h 6.138176 A 0.63582355,0.63582355 0 0 0 55.41159,24.847866 0.63582355,0.63582355 0 0 0 54.775815,24.21162 Z"
       id="path8621" />
    <path
       style="color:#000000;fill:#620092;stroke:#ffffff;stroke-width:2.5;stroke-linecap:round;stroke-miterlimit:4;stroke-dasharray:none;stroke-opacity:1;paint-order:markers stroke fill"
       d="m 16.932331,25.048218 a 0.63582355,0.63582355 0 0 0 -0.635777,0.635775 v 9.060872 a 0.63582355,0.63582355 0 0 0 0.635777,0.635778 0.63582355,0.63582355 0 0 0 0.635776,-0.635778 v -9.060872 a 0.63582355,0.63582355 0 0 0 -0.635776,-0.635775 z"
       id="path2446" />
  </g>
</svg>
